HIERARCHY
ROOT Hips
{
	OFFSET 0.00000 0.00000 0.00000
	CHANNELS 6 Xposition Yposition Zposition Zrotation Yrotation Xrotation 
	JOINT LHipJoint
	{
		OFFSET 0 0 0
		CHANNELS 3 Zrotation Yrotation Xrotation
		JOINT LeftHip
		{
			OFFSET 1.64577 -1.42384 0.94276
			CHANNELS 3 Zrotation Yrotation Xrotation
			JOINT LeftKnee
			{
				OFFSET 2.11538 -5.81197 0.00000
				CHANNELS 3 Zrotation Yrotation Xrotation
				JOINT LeftAnkle
				{
					OFFSET 2.36541 -6.49893 0.00000
					CHANNELS 3 Zrotation Yrotation Xrotation
					JOINT LeftToe
					{
						OFFSET 0.17759 -0.48793 1.73865
						CHANNELS 3 Zrotation Yrotation Xrotation
						End Site
						{
							OFFSET 0.00000 -0.00000 0.91205
						}
					}
				}
			}
		}
	}
	JOINT RHipJoint
	{
		OFFSET 0 0 0
		CHANNELS 3 Zrotation Yrotation Xrotation
		JOINT RightHip
		{
			OFFSET -1.43750 -1.42384 0.94276
			CHANNELS 3 Zrotation Yrotation Xrotation
			JOINT RightKnee
			{
				OFFSET -2.10480 -5.78291 0.00000
				CHANNELS 3 Zrotation Yrotation Xrotation
				JOINT RightAnkle
				{
					OFFSET -2.34880 -6.45329 0.00000
					CHANNELS 3 Zrotation Yrotation Xrotation
					JOINT RightToe
					{
						OFFSET -0.22842 -0.62757 1.80469
						CHANNELS 3 Zrotation Yrotation Xrotation
						End Site
						{
							OFFSET -0.00000 -0.00000 0.95886
						}
					}
				}
			}
		}
	}
	JOINT lowerback
	{
		OFFSET 0 0 0
		CHANNELS 3 Zrotation Yrotation Xrotation
		JOINT Chest
		{
			OFFSET 0.06217 1.93758 -0.49272
			CHANNELS 3 Zrotation Yrotation Xrotation
			JOINT Chest2
			{
				OFFSET -0.03114 2.03621 -0.05830
				CHANNELS 3 Zrotation Yrotation Xrotation
				JOINT lowerneck
				{
					OFFSET 0 0 0
					CHANNELS 3 Zrotation Yrotation Xrotation
					JOINT Neck
					{
						OFFSET 0.04421 1.41010 0.26562
						CHANNELS 3 Zrotation Yrotation Xrotation
						JOINT Head
						{
							OFFSET -0.13407 1.43847 0.06181
							CHANNELS 3 Zrotation Yrotation Xrotation
							End Site
							{
								OFFSET -0.04980 1.45844 -0.00689
							}
						}
					}
				}
				JOINT LeftCollar
				{
					OFFSET 0 0 0
					CHANNELS 3 Zrotation Yrotation Xrotation
					JOINT LeftShoulder
					{
						OFFSET 2.18382 1.47753 -0.35694
CHANNELS 3 Zrotation Xrotation Yrotation
						JOINT LeftElbow
						{
OFFSET 0 -5.054600 0.000000
CHANNELS 3 Zrotation Xrotation Yrotation
							JOINT LeftWrist
							{
OFFSET 0 -3.390130 0.000000
CHANNELS 3 Zrotation Xrotation Yrotation
								JOINT lhand
								{
									OFFSET 0 0 0
CHANNELS 3 Zrotation Xrotation Yrotation
									JOINT LFingers
									{
OFFSET 0 -0.572420 -0.000000
CHANNELS 3 Zrotation Xrotation Yrotation
										End Site
										{
OFFSET 0 -0.461500 -0.000000
										}
									}
								}
								JOINT LThumb
								{
OFFSET 0 0.000000 0.000000
CHANNELS 3 Zrotation Xrotation Yrotation
									End Site
									{
OFFSET 0 -0.468550 0.468550
									}
								}
							}
						}
					}
				}
				JOINT RightCollar
				{
					OFFSET 0 0 0
					CHANNELS 3 Zrotation Yrotation Xrotation
					JOINT RightShoulder
					{
						OFFSET -2.06033 1.72839 -0.47437
CHANNELS 3 Zrotation Xrotation Yrotation
						JOINT RightElbow
						{
OFFSET 0 -5.070100 0.000000
CHANNELS 3 Zrotation Xrotation Yrotation
							JOINT RightWrist
							{
OFFSET 0 -3.149570 -0.000000
CHANNELS 3 Zrotation Xrotation Yrotation
								JOINT rhand
								{
									OFFSET 0 0 0
CHANNELS 3 Zrotation Xrotation Yrotation
									JOINT RFingers
									{
OFFSET 0 -0.718190 -0.000000
CHANNELS 3 Zrotation Xrotation Yrotation
										End Site
										{
OFFSET 0 -0.579020 -0.000000
										}
									}
								}
								JOINT RThumb
								{
OFFSET 0 0.000000 0.000000
CHANNELS 3 Zrotation Xrotation Yrotation
									End Site
									{
OFFSET 0 -0.587860 0.587860
									}
								}
							}
						}
					}
				}
			}
		}
	}
}
MOTION
Frames: 9
Frame Time: 0.008333333333333333
9.609300 15.207500 -2.296700 -2.211500 -72.096100 1.014000 0.000000 0.000000 0.000000 -26.716000 -19.584800 2.580300 2.782300 10.334100 30.065500 2.241800 15.772100 -37.453900 0.002100 -0.296000 -0.813300 0.000000 0.000000 0.000000 28.024600 16.024600 -1.497900 -2.865900 -10.474700 30.527900 -4.415900 -17.189200 -47.860100 -0.037700 1.254000 -3.447900 -0.820200 1.585700 1.861100 -0.759600 2.080900 3.927700 -0.306200 1.005200 2.989300 7.800600 2.255100 -10.525700 -4.315300 2.333700 20.234900 -2.519000 1.201100 8.145800 0.000000 -0.000000 0.000000 2.053500 1.864200 -20.094800 16.434000 -26.105600 3.834900 20.477100 4.218300 -11.402400 0.000000 0.000000 0.000000 -7.125000 0.000000 0.000000 -5.985300 42.053000 -0.436900 0.000000 -0.000000 0.000000 -2.099200 1.646400 21.035900 -17.072500 -26.953300 -4.120200 -15.626900 -14.561300 0.992100 0.000000 0.000000 0.000000 7.125000 0.000000 -0.000000 8.692000 30.941600 3.016700
9.602414 15.206490 -2.302301 -1.820991 -71.948913 0.720728 0.000000 0.000000 0.000000 -26.802494 -19.675426 2.575250 2.767058 10.308023 29.980199 2.215540 15.843077 -37.376771 0.005222 -0.464581 -1.276530 0.000000 0.000000 0.000000 27.886044 15.926720 -1.665195 -2.883529 -10.503990 30.624862 -4.437294 -17.159359 -47.922446 -0.038526 1.266487 -3.482424 -0.764374 1.575508 1.832544 -0.841411 2.069973 3.885738 -0.421158 1.003180 2.967171 7.867628 2.356744 -10.637445 -4.204382 2.424234 20.779758 -2.489710 1.259681 8.356251 0.000000 0.000000 0.000000 2.072048 1.941604 -20.096636 16.448416 -26.124882 3.841327 20.380965 4.340420 -11.373660 0.000000 0.000000 0.000000 -7.125000 0.000000 0.000000 -6.066010 42.013150 -0.448837 0.000000 0.000000 0.000000 -1.995076 1.729589 21.162611 -17.149078 -27.053934 -4.154908 -16.084162 -14.211008 1.441007 0.000000 0.000000 0.000000 7.125000 0.000000 0.000000 8.374120 31.411901 2.809096
9.594356 15.206985 -2.309909 -1.362817 -71.858350 0.396760 0.000000 0.000000 0.000000 -26.893421 -19.790140 2.505045 2.766285 10.306704 29.975862 2.210022 15.876332 -37.375504 0.007591 -0.562403 -1.545466 0.000000 0.000000 0.000000 27.759030 15.971195 -1.760812 -2.884180 -10.505178 30.628649 -4.482525 -17.076072 -48.041666 -0.029818 1.111947 -3.056932 -0.806573 1.581709 1.698352 -0.879563 2.081880 3.874472 -0.432906 1.008604 3.030941 7.795397 2.468760 -10.735890 -3.984398 2.532918 21.250261 -2.396602 1.326793 8.538348 0.000000 0.000000 0.000000 2.062492 1.903167 -20.116372 16.380614 -26.034011 3.811539 20.262832 4.399058 -11.224815 0.000000 0.000000 0.000000 -7.125000 0.000000 0.000000 -6.145883 41.844914 -0.480428 0.000000 0.000000 0.000000 -1.912699 1.731396 20.977431 -17.207087 -27.129895 -4.181335 -16.200761 -13.851264 1.676214 0.000000 0.000000 0.000000 7.125000 0.000000 0.000000 8.304900 31.656626 2.735816
9.585052 15.207175 -2.319223 -1.583421 -71.847275 0.606229 0.000000 0.000000 0.000000 -26.782853 -19.797266 2.540071 2.768513 10.310522 29.988196 2.223058 15.888844 -37.451531 0.008075 -0.580939 -1.596339 0.000000 0.000000 0.000000 27.902233 15.968923 -1.726269 -2.882415 -10.502334 30.619098 -4.482549 -17.099614 -48.056203 -0.027270 1.065880 -2.930164 -0.720118 1.552237 1.654113 -0.794747 2.041388 3.902505 -0.392829 0.989402 3.084548 7.840316 2.660494 -10.884046 -4.034228 2.783731 21.873993 -2.400481 1.442732 8.797130 0.000000 0.000000 0.000000 1.964920 1.847364 -19.954643 16.299640 -25.925198 3.776020 20.093123 4.369086 -11.291128 0.000000 0.000000 0.000000 -7.125000 0.000000 0.000000 -6.307547 41.897969 -0.484740 0.000000 0.000000 0.000000 -2.004269 1.704946 21.034833 -17.224118 -27.152281 -4.189069 -16.113051 -13.889775 1.585893 0.000000 0.000000 0.000000 7.125000 0.000000 0.000000 8.365719 31.561681 2.775507
9.576310 15.207065 -2.328999 -1.693874 -71.817517 0.703997 0.000000 0.000000 0.000000 -26.704798 -19.801681 2.565790 2.772362 10.317150 30.009896 2.228375 15.907683 -37.493594 0.009513 -0.628997 -1.728450 0.000000 0.000000 0.000000 28.015305 15.974488 -1.677673 -2.879142 -10.496858 30.601162 -4.490968 -17.129623 -48.106312 -0.024847 1.016867 -2.795233 -0.646345 1.535068 1.643929 -0.739634 2.017375 3.918088 -0.377143 0.978629 3.106815 7.935521 2.822264 -10.959028 -4.100938 2.992718 22.403819 -2.422167 1.541289 9.010369 0.000000 0.000000 0.000000 1.904836 1.824363 -19.844420 16.244397 -25.850892 3.751868 19.883565 4.293462 -11.300000 0.000000 0.000000 0.000000 -7.125000 0.000000 0.000000 -6.494767 41.886880 -0.501222 0.000000 0.000000 0.000000 -2.055923 1.700468 21.074275 -17.241672 -27.175282 -4.197097 -16.099009 -13.883842 1.557825 0.000000 0.000000 0.000000 7.125000 0.000000 0.000000 8.374039 31.532365 2.784230
9.567686 15.206586 -2.339474 -1.683052 -71.781006 0.676400 0.000000 0.000000 0.000000 -26.663024 -19.797549 2.581711 2.779573 10.329433 30.050159 2.227204 15.927283 -37.503146 0.011796 -0.699279 -1.921598 0.000000 0.000000 0.000000 28.097702 15.991729 -1.604970 -2.873309 -10.487094 30.568979 -4.507806 -17.154548 -48.184793 -0.021791 0.952299 -2.617553 -0.601606 1.526222 1.656852 -0.703561 2.004404 3.929451 -0.365380 0.972877 3.111436 8.077023 2.957838 -10.943655 -4.210898 3.173929 22.819799 -2.468896 1.626225 9.168739 0.000000 0.000000 0.000000 1.867297 1.809253 -19.765407 16.197410 -25.787613 3.731444 19.642165 4.184949 -11.263533 0.000000 0.000000 0.000000 -7.125000 0.000000 0.000000 -6.702209 41.825154 -0.527643 0.000000 0.000000 0.000000 -2.087348 1.704368 21.092188 -17.255719 -27.193628 -4.203514 -16.108695 -13.876165 1.545293 0.000000 0.000000 0.000000 7.125000 0.000000 0.000000 8.365072 31.519661 2.783810
9.558810 15.205689 -2.350614 -1.609225 -71.747768 0.569838 0.000000 0.000000 0.000000 -26.642376 -19.771027 2.613179 2.785333 10.339155 30.082031 2.218513 15.948590 -37.476101 0.014784 -0.782256 -2.149794 0.000000 0.000000 0.000000 28.168915 16.012671 -1.513258 -2.869894 -10.481391 30.550069 -4.532045 -17.164982 -48.281891 -0.018720 0.882735 -2.426284 -0.576955 1.517714 1.689146 -0.671008 1.991671 3.944873 -0.346542 0.966583 3.108850 8.273231 3.072468 -10.833248 -4.411623 3.344629 23.127250 -2.557147 1.701796 9.274273 0.000000 0.000000 0.000000 1.833482 1.789689 -19.687336 16.150895 -25.724785 3.711253 19.391514 4.067403 -11.225587 0.000000 0.000000 0.000000 -7.125000 0.000000 0.000000 -6.917336 41.761181 -0.555730 0.000000 0.000000 0.000000 -2.124838 1.708193 21.123848 -17.263813 -27.204234 -4.207229 -16.111446 -13.926719 1.505268 0.000000 0.000000 0.000000 7.125000 0.000000 0.000000 8.358916 31.478555 2.790072
9.549683 15.204331 -2.362256 -1.440802 -71.709956 0.363778 0.000000 0.000000 0.000000 -26.652674 -19.730244 2.660375 2.787015 10.342015 30.091444 2.203037 15.963793 -37.409739 0.018395 -0.873652 -2.401185 0.000000 0.000000 0.000000 28.212570 16.035612 -1.420333 -2.871139 -10.483464 30.556905 -4.566989 -17.149298 -48.402854 -0.015604 0.805779 -2.214654 -0.575782 1.507288 1.730771 -0.646981 1.976466 3.961921 -0.323604 0.958427 3.102225 8.510286 3.156133 -10.622378 -4.700221 3.493926 23.316630 -2.685035 1.762335 9.321028 0.000000 0.000000 0.000000 1.802268 1.770964 -19.615857 16.108094 -25.666898 3.692665 19.163765 3.968704 -11.192609 0.000000 0.000000 0.000000 -7.125000 0.000000 0.000000 -7.112830 41.704808 -0.581513 0.000000 0.000000 0.000000 -2.161285 1.713534 21.160016 -17.270405 -27.212888 -4.210253 -16.117447 -14.006905 1.467790 0.000000 0.000000 0.000000 7.125000 0.000000 0.000000 8.350425 31.440133 2.794968
9.540133 15.202471 -2.374054 -1.173504 -71.667756 0.062573 0.000000 0.000000 0.000000 -26.696198 -19.684261 2.717021 2.785621 10.339688 30.083912 2.186329 15.961989 -37.323148 0.022148 -0.960090 -2.638882 0.000000 0.000000 0.000000 28.221851 16.056720 -1.332717 -2.875826 -10.491289 30.582780 -4.610048 -17.106481 -48.537358 -0.012563 0.723006 -1.986957 -0.596280 1.493038 1.768878 -0.631415 1.956315 3.980348 -0.297191 0.947289 3.098559 8.757397 3.203145 -10.321657 -5.057465 3.614864 23.395620 -2.841524 1.804244 9.311781 0.000000 0.000000 0.000000 1.770345 1.757579 -19.555068 16.069892 -25.615257 3.676129 18.998929 3.911896 -11.163480 0.000000 0.000000 0.000000 -7.125000 0.000000 0.000000 -7.253213 41.658637 -0.601356 0.000000 0.000000 0.000000 -2.194637 1.718187 21.187464 -17.278398 -27.223304 -4.213893 -16.121889 -14.083629 1.460463 0.000000 0.000000 0.000000 7.125000 0.000000 0.000000 8.346206 31.432670 2.795018
